<?xml version="1.0" encoding="UTF-8"?>
<svg width="138px" height="22px" viewBox="0 0 138 22" version="1.1" xmlns="http://www.w3.org/2000/svg" xmlns:xlink="http://www.w3.org/1999/xlink">
    <!-- Generator: Sketch 43.2 (39069) - http://www.bohemiancoding.com/sketch -->
    <title>whiplash logo</title>
    <desc>Created with Sketch.</desc>
    <defs></defs>
    <g id="Page-1" stroke="none" stroke-width="1" fill="none" fill-rule="evenodd">
        <g id="iPhone-7" transform="translate(-111.000000, -626.000000)" fill="#FFFFFF">
            <g id="Footer" transform="translate(1.000000, 592.000000)">
                <g id="whiplash-logo" transform="translate(110.000000, 34.000000)">
                    <g id="whiplash-horizontal-white">
                        <path d="M26.0845399,10.8730769 C26.0884181,10.8535236 26.0884181,10.8333995 26.0845399,10.8138462 C26.0864601,10.8448421 26.0864601,10.8759271 26.0845399,10.9069231 C26.0870802,10.8957839 26.0870802,10.8842161 26.0845399,10.8730769 L26.0845399,10.8730769 Z M26.0845399,10.8730769 C26.0869333,10.9068808 26.0869333,10.9408115 26.0845399,10.9746154 C26.0890885,11.016801 26.0890885,11.0593529 26.0845399,11.1015385 C26.0973139,11.0372948 26.0973139,10.9711667 26.0845399,10.9069231 L26.0845399,10.8730769 Z" id="_Compound_Path_" fill-rule="nonzero"></path>
                        <path d="M26.0845399,10.9069231 C26.0864601,10.8759271 26.0864601,10.8448421 26.0845399,10.8138462 C26.0884181,10.7942928 26.0884181,10.7741687 26.0845399,10.7546154 L20.0057669,0.321538462 L20.0057669,0.253846154 C19.985039,0.216738041 19.9594104,0.182585587 19.9295706,0.152307692 C19.8596588,0.0759951627 19.7680863,0.0228536232 19.6671166,0 L19.5316564,0 L7.41644172,0 L7.2809816,1.12730338e-16 C7.19442873,0.0247876273 7.11571036,0.0714095489 7.05239264,0.135384615 C7.02123177,0.170858125 6.99554942,0.210786169 6.97619632,0.253846154 L6.97619632,0.321538462 L0.914355828,10.7546154 C0.89458979,10.7957346 0.877618825,10.8381383 0.863558282,10.8815385 C0.852644611,10.9200924 0.846949754,10.9599341 0.846625767,11 C0.840299929,11.0392341 0.840299929,11.0792274 0.846625767,11.1184615 C0.856528897,11.1659212 0.873660818,11.2115809 0.897423313,11.2538462 L0.897423313,11.2538462 L6.90846626,21.6615385 L6.90846626,21.7207692 C6.92998215,21.7573592 6.95554106,21.7914188 6.98466258,21.8223077 C7.01333316,21.8562164 7.04771609,21.8848529 7.08625767,21.9069231 L7.2809816,22 L7.41644172,22 L19.5316564,22 L19.6671166,22 L19.7856442,21.9492308 C19.8241858,21.9271606 19.8585687,21.8985241 19.8872393,21.8646154 C19.9170791,21.8343375 19.9427078,21.800185 19.9634356,21.7630769 L19.9634356,21.7038462 L25.9744785,11.3384615 L25.9744785,11.2876923 L25.9744785,11.2876923 C25.9961216,11.2474232 26.0131614,11.2048476 26.0252761,11.1607692 C26.0298247,11.1185837 26.0298247,11.0760317 26.0252761,11.0338462 C26.0491153,10.9935662 26.0689639,10.951057 26.0845399,10.9069231 Z M6.90846626,19.6223077 L2.73460123,12.3876923 L6.90846626,14.7992308 L6.90846626,19.6223077 Z M6.90846626,13.6315385 L2.36208589,11 L6.90846626,8.37692308 L6.90846626,13.6315385 Z M6.90846626,7.20923077 L2.73460123,9.62076923 L6.90846626,2.38615385 L6.90846626,7.20923077 Z M17.6521472,1.00692308 L13.469816,3.38461538 L9.31288344,1.00692308 L17.6521472,1.00692308 Z M13.469816,10.4246154 L8.39006135,7.51384615 L13.469816,4.60307692 L18.5495706,7.51384615 L13.469816,10.4246154 Z M7.91595092,1.37923077 L12.453865,4.00230769 L7.91595092,6.62538462 L7.91595092,1.37923077 Z M7.91595092,8.38538462 L12.9957055,11.2961538 L12.9957055,17.1261538 L7.91595092,14.2153846 L7.91595092,8.38538462 Z M7.91595092,15.3830769 L12.453865,18.0061538 L7.91595092,20.6292308 L7.91595092,15.3830769 Z M9.31288344,20.9930769 L13.469816,18.6153846 L17.643681,21.0269231 L9.31288344,20.9930769 Z M19.0406135,20.6207692 L14.4942331,17.9976923 L19.0406135,15.3746154 L19.0406135,20.6207692 Z M19.0406135,14.2069231 L13.9608589,17.1176923 L13.9608589,11.2792308 L19.0406135,8.36846154 L19.0406135,14.2069231 Z M19.0406135,6.59153846 L14.4773006,4.01076923 L19.023681,1.38769231 L19.0406135,6.59153846 Z M20.0480982,2.36076923 L24.2219632,9.58692308 L20.0396319,7.20923077 L20.0480982,2.36076923 Z M20.0480982,19.58 L20.0480982,14.7569231 L24.2219632,12.3453846 L20.0480982,19.58 Z M20.0480982,13.5976923 L20.0480982,8.37692308 L24.5521472,11 L20.0480982,13.5976923 Z" id="Shape" fill-rule="nonzero"></path>
                        <g id="_Group_2" transform="translate(36.404908, 0.846154)" fill-rule="nonzero">
                            <path d="M9.75312883,0.583846154 C9.70233129,0.304615385 9.56687117,0.245384615 9.48220859,0.22 L7.19631902,0.22 C7.19631902,0.22 6.9592638,0.22 6.9,0.583846154 L5.00355828,13.6653846 L3.10711656,0.583846154 C3.05631902,0.22 2.81079755,0.22 2.81079755,0.22 L0.541840491,0.22 C0.541840491,0.22 0.304785276,0.22 0.330184049,0.583846154 L3.53889571,19.9523077 C3.55171378,20.1509467 3.71241918,20.3079121 3.91141104,20.3161538 L6.09570552,20.3161538 C6.29469739,20.3079121 6.45540278,20.1509467 6.46822086,19.9523077 L8.31386503,8.64769231 L10.1595092,19.9523077 C10.1723273,20.1509467 10.3330327,20.3079121 10.5320245,20.3161538 L12.750184,20.3161538 C12.9427208,20.3030434 13.093361,20.145143 13.0973006,19.9523077 L16.3229448,0.583846154 C16.3737423,0.22 16.1366871,0.22 16.1366871,0.22 L13.8423313,0.22 C13.8423313,0.22 13.6052761,0.22 13.5460123,0.583846154 L11.6495706,13.6653846 L9.75312883,0.583846154 Z" id="_Path_"></path>
                            <path d="M26.7195092,11.1015385 L26.7195092,19.9523077 C26.7072431,20.0446414 26.7356416,20.1377541 26.7973558,20.2075496 C26.8590699,20.2773451 26.9480346,20.3169641 27.041227,20.3161538 L29.1493252,20.3161538 C29.2425176,20.3169641 29.3314822,20.2773451 29.3931964,20.2075496 C29.4549105,20.1377541 29.4833091,20.0446414 29.4710429,19.9523077 L29.4710429,0.583846154 C29.4833091,0.491512445 29.4549105,0.398399741 29.3931964,0.328604234 C29.3314822,0.258808726 29.2425176,0.21918971 29.1493252,0.22 L27.0327607,0.22 C26.9395683,0.21918971 26.8506037,0.258808726 26.7888895,0.328604234 C26.7271754,0.398399741 26.6987768,0.491512445 26.7110429,0.583846154 L26.7110429,8.36846154 L23.3753374,8.36846154 L23.3753374,0.583846154 C23.3876036,0.491512445 23.359205,0.398399741 23.2974909,0.328604234 C23.2357767,0.258808726 23.1468121,0.21918971 23.0536196,0.22 L20.9709202,0.22 C20.8742504,0.214510816 20.7800417,0.251706445 20.7132246,0.321743825 C20.6464076,0.391781205 20.6137169,0.487600889 20.6238037,0.583846154 L20.6238037,19.9523077 C20.6137169,20.048553 20.6464076,20.1443726 20.7132246,20.21441 C20.7800417,20.2844474 20.8742504,20.321643 20.9709202,20.3161538 L23.0536196,20.3161538 C23.1468121,20.3169641 23.2357767,20.2773451 23.2974909,20.2075496 C23.359205,20.1377541 23.3876036,20.0446414 23.3753374,19.9523077 L23.3753374,11.1015385 L26.7195092,11.1015385 Z" id="_Path_2"></path>
                            <path d="M37.0229448,0.583846154 C37.0352109,0.491512445 37.0068124,0.398399741 36.9450982,0.328604234 C36.8833841,0.258808726 36.7944194,0.21918971 36.701227,0.22 L34.6185276,0.22 C34.5218577,0.214510816 34.4276491,0.251706445 34.360832,0.321743825 C34.2940149,0.391781205 34.2613243,0.487600889 34.271411,0.583846154 L34.271411,19.9523077 C34.2613243,20.048553 34.2940149,20.1443726 34.360832,20.21441 C34.4276491,20.2844474 34.5218577,20.321643 34.6185276,20.3161538 L36.701227,20.3161538 C36.7944194,20.3169641 36.8833841,20.2773451 36.9450982,20.2075496 C37.0068124,20.1377541 37.0352109,20.0446414 37.0229448,19.9523077 L37.0229448,0.583846154 Z" id="_Path_3"></path>
                            <path d="M41.8317791,19.9523077 C41.8216924,20.048553 41.854383,20.1443726 41.9212001,20.21441 C41.9880172,20.2844474 42.0822258,20.321643 42.1788957,20.3161538 L44.2615951,20.3161538 C44.3547875,20.3169641 44.4437522,20.2773451 44.5054663,20.2075496 C44.5671805,20.1377541 44.595579,20.0446414 44.5833129,19.9523077 L44.5833129,12.2523077 L47.6819632,12.2523077 C49.2665454,12.206193 50.517508,10.8917147 50.4842945,9.30769231 L50.4842945,3.14769231 C50.5081139,1.57021188 49.2598295,0.266086069 47.6819632,0.22 L42.1788957,0.22 C42.0822258,0.214510816 41.9880172,0.251706445 41.9212001,0.321743825 C41.854383,0.391781205 41.8216924,0.487600889 41.8317791,0.583846154 L41.8317791,19.9523077 Z M47.707362,8.90153846 C47.7142197,9.09070052 47.6443879,9.27462034 47.5136933,9.41161387 C47.3829987,9.54860739 47.2025083,9.62707434 47.0131288,9.62923077 L44.5833129,9.62923077 L44.5833129,2.95307692 L47.0131288,2.95307692 C47.2025083,2.95523335 47.3829987,3.0337003 47.5136933,3.17069382 C47.6443879,3.30768735 47.7142197,3.49160717 47.707362,3.68076923 L47.707362,8.90153846 L47.707362,8.90153846 Z" id="_Compound_Path_2"></path>
                            <path d="M54.8952147,19.9523077 C54.885128,20.048553 54.9178186,20.1443726 54.9846357,20.21441 C55.0514527,20.2844474 55.1456614,20.321643 55.2423313,20.3161538 L62.6503067,20.3161538 C62.7434992,20.3169641 62.8324638,20.2773451 62.894178,20.2075496 C62.9558921,20.1377541 62.9842907,20.0446414 62.9720245,19.9523077 L62.9720245,17.9384615 C62.9842907,17.8461278 62.9558921,17.7530151 62.894178,17.6832196 C62.8324638,17.6134241 62.7434992,17.5738051 62.6503067,17.5746154 L57.5705521,17.5746154 L57.5705521,0.583846154 C57.5828183,0.491512445 57.5544197,0.398399741 57.4927056,0.328604234 C57.4309914,0.258808726 57.3420268,0.21918971 57.2488344,0.22 L55.166135,0.22 C55.0694651,0.214510816 54.9752564,0.251706445 54.9084394,0.321743825 C54.8416223,0.391781205 54.8089317,0.487600889 54.8190184,0.583846154 L54.8190184,19.9523077 L54.8952147,19.9523077 Z" id="_Path_4"></path>
                            <path d="M70.8879755,6.60846154 L71.9631902,14.5369231 L69.9058896,14.5369231 L70.9218405,6.60846154 L70.8879755,6.60846154 Z M69.7958282,0.22 C69.701513,0.222217616 69.6119453,0.261803831 69.5468427,0.330044152 C69.48174,0.398284473 69.4464393,0.489584741 69.4487117,0.583846154 L66.24,19.9523077 C66.1892025,20.3161538 66.4262577,20.3161538 66.4262577,20.3161538 L68.7206135,20.3161538 C68.7206135,20.3161538 68.9576687,20.3161538 68.9915337,19.9523077 L69.4487117,17.27 L72.3611043,17.27 L72.8182822,19.9523077 C72.8182822,20.3161538 73.0892025,20.3161538 73.0892025,20.3161538 L75.3496933,20.3161538 C75.3496933,20.3161538 75.5867485,20.3161538 75.5359509,19.9523077 L72.3611043,0.583846154 C72.3633766,0.489584741 72.3280759,0.398284473 72.2629733,0.330044152 C72.1978706,0.261803831 72.108303,0.222217616 72.0139877,0.22 L69.7958282,0.22 Z" id="_Compound_Path_3"></path>
                            <path d="M78.9309202,17.49 C78.9127455,18.2575552 79.2005043,19.0008685 79.730851,19.5563113 C80.2611978,20.1117541 80.9906572,20.4337938 81.7586503,20.4515385 L84.772638,20.4515385 C85.5376693,20.4316306 86.2632776,20.1080693 86.7891171,19.5523556 C87.3149567,18.9966419 87.5977371,18.2545253 87.5749693,17.49 L87.5749693,11.5669231 C87.595418,10.8062687 87.3108314,10.0689967 86.7845307,9.51915221 C86.25823,8.96930769 85.5338754,8.65250396 84.772638,8.63923077 L82.3936196,8.63923077 C82.002824,8.62546709 81.6945435,8.30232869 81.6993865,7.91153846 L81.6993865,3.57076923 C81.6925287,3.38160717 81.7623606,3.19768735 81.8930551,3.06069382 C82.0237497,2.9237003 82.2042402,2.84523335 82.3936196,2.84307692 L83.9937423,2.84307692 C84.1846624,2.84035584 84.3680733,2.91731178 84.4998359,3.05542484 C84.6315985,3.1935379 84.6997813,3.38030128 84.6879755,3.57076923 L84.6879755,4.88230769 C84.6833378,4.97721295 84.7178511,5.06986571 84.7834575,5.13863407 C84.8490639,5.20740244 84.9400207,5.24626697 85.035092,5.24615385 L87.1177914,5.24615385 C87.2144613,5.25164303 87.30867,5.2144474 87.375487,5.14441002 C87.4423041,5.07437264 87.4749947,4.97855296 87.464908,4.88230769 L87.464908,3.03769231 C87.4980141,1.45658392 86.2444807,0.146974288 84.6625767,0.11 L81.750184,0.11 C80.9859828,0.121101777 80.2577745,0.436380022 79.7269651,0.985953822 C79.1961558,1.53552762 78.9065916,2.27400092 78.922454,3.03769231 L78.922454,8.30923077 C78.9034694,9.89452782 80.1643206,11.199951 81.750184,11.2369231 L84.1292025,11.2369231 C84.5199981,11.2506868 84.8282786,11.5738252 84.8234356,11.9646154 L84.8234356,17.0415385 C84.8282786,17.4323287 84.5199981,17.7554671 84.1292025,17.7692308 L82.3936196,17.7692308 C82.002824,17.7554671 81.6945435,17.4323287 81.6993865,17.0415385 L81.6993865,14.3846154 C81.7094732,14.2883701 81.6767826,14.1925504 81.6099656,14.1225131 C81.5431485,14.0524757 81.4489398,14.01528 81.3522699,14.0207692 L79.2695706,14.0207692 C79.1744992,14.0206561 79.0835424,14.0595206 79.017936,14.128289 C78.9523296,14.1970574 78.9178163,14.2897101 78.922454,14.3846154 L78.922454,17.4815385 L78.9309202,17.49 Z" id="_Path_5"></path>
                            <path d="M98.0815951,11.1015385 L98.0815951,19.9523077 C98.0693289,20.0446414 98.0977275,20.1377541 98.1594417,20.2075496 C98.2211558,20.2773451 98.3101205,20.3169641 98.4033129,20.3161538 L100.511411,20.3161538 C100.604603,20.3169641 100.693568,20.2773451 100.755282,20.2075496 C100.816996,20.1377541 100.845395,20.0446414 100.833129,19.9523077 L100.833129,0.583846154 C100.845395,0.491512445 100.816996,0.398399741 100.755282,0.328604234 C100.693568,0.258808726 100.604603,0.21918971 100.511411,0.22 L98.4033129,0.22 C98.3101205,0.21918971 98.2211558,0.258808726 98.1594417,0.328604234 C98.0977275,0.398399741 98.0693289,0.491512445 98.0815951,0.583846154 L98.0815951,8.36846154 L94.7458896,8.36846154 L94.7458896,0.583846154 C94.7581557,0.491512445 94.7297572,0.398399741 94.668043,0.328604234 C94.6063289,0.258808726 94.5173642,0.21918971 94.4241718,0.22 L92.3414724,0.22 C92.2448025,0.214510816 92.1505938,0.251706445 92.0837768,0.321743825 C92.0169597,0.391781205 91.9842691,0.487600889 91.9943558,0.583846154 L91.9943558,19.9523077 C91.9842691,20.048553 92.0169597,20.1443726 92.0837768,20.21441 C92.1505938,20.2844474 92.2448025,20.321643 92.3414724,20.3161538 L94.4241718,20.3161538 C94.5173642,20.3169641 94.6063289,20.2773451 94.668043,20.2075496 C94.7297572,20.1377541 94.7581557,20.0446414 94.7458896,19.9523077 L94.7458896,11.1015385 L98.0815951,11.1015385 Z" id="_Path_6"></path>
                        </g>
                    </g>
                </g>
            </g>
        </g>
    </g>
</svg>